<?xml version="1.0" encoding="utf-8"?>
<!-- Generator: Adobe Illustrator 22.0.1, SVG Export Plug-In . SVG Version: 6.00 Build 0)  -->
<svg version="1.1" id="Layer_1" xmlns="http://www.w3.org/2000/svg" xmlns:xlink="http://www.w3.org/1999/xlink" x="0px" y="0px"
	 viewBox="0 0 720 720" style="enable-background:new 0 0 720 720;" xml:space="preserve">
<style type="text/css">
	.st0{fill:#FFFFFF;}
</style>
<g>
	<path class="st0" d="M339.6,350.2h39.2c0.9,0,1.6-0.7,1.6-1.6c0-0.9-0.7-1.6-1.6-1.6h-39.2c-0.9,0-1.6,0.7-1.6,1.6
		C338,349.5,338.7,350.2,339.6,350.2L339.6,350.2z M339.6,350.2"/>
	<path class="st0" d="M339.6,362.2h39.2c0.9,0,1.6-0.7,1.6-1.6c0-0.9-0.7-1.6-1.6-1.6h-39.2c-0.9,0-1.6,0.7-1.6,1.6
		C338,361.5,338.7,362.2,339.6,362.2L339.6,362.2z M339.6,362.2"/>
	<path class="st0" d="M339.6,374.2h39.2c0.9,0,1.6-0.7,1.6-1.6c0-0.9-0.7-1.6-1.6-1.6h-39.2c-0.9,0-1.6,0.7-1.6,1.6
		C338,373.5,338.7,374.2,339.6,374.2L339.6,374.2z M339.6,374.2"/>
</g>
</svg>
