<?xml version="1.0" encoding="utf-8"?>
<!-- Generator: Adobe Illustrator 22.0.1, SVG Export Plug-In . SVG Version: 6.00 Build 0)  -->
<svg version="1.1" id="Layer_1" xmlns="http://www.w3.org/2000/svg" xmlns:xlink="http://www.w3.org/1999/xlink" x="0px" y="0px"
	 viewBox="0 0 144 144" style="enable-background:new 0 0 144 144;" xml:space="preserve">
<style type="text/css">
	.st0{fill:#0094FF;}
</style>
<g>
	<path class="st0" d="M72.2,0.2C32.7,0.2,0.5,32.4,0.5,72s32.2,71.8,71.8,71.8c39.6,0,71.8-32.2,71.8-71.8S111.8,0.2,72.2,0.2
		L72.2,0.2z M72.2,138.2C35.7,138.2,6,108.5,6,72C6,35.5,35.7,5.8,72.2,5.8c36.5,0,66.2,29.7,66.2,66.2
		C138.5,108.5,108.8,138.2,72.2,138.2L72.2,138.2z M72.2,138.2"/>
	<path class="st0" d="M108.1,69.2H36.4c-1.5,0-2.7,1.2-2.7,2.8c0,1.5,1.2,2.8,2.7,2.8h71.8c1.5,0,2.8-1.2,2.8-2.8
		C110.9,70.5,109.6,69.2,108.1,69.2L108.1,69.2z M108.1,69.2"/>
</g>
</svg>
